mtllib materials.mtl
v 0.06499994 0.23 0
v 0.05629158 0.23 -0.03250003
v 0.0562917 -0.23 -0.03250003
v 0.06500006 -0.23 0
v 0.03249991 0.23 -0.05629158
v 0.03250003 -0.23 -0.0562917
v -1.192093E-07 0.23 -0.06499994
v 1.192093E-07 -0.23 -0.06500006
v -0.03250015 0.23 -0.05629158
v -0.03249991 -0.23 -0.0562917
v -0.0562917 0.23 -0.03249991
v -0.05629158 -0.23 -0.03250003
v -0.06500006 0.23 0
v -0.06499994 -0.23 0
v -0.0562917 0.23 0.03250003
v -0.05629158 -0.23 0.03250003
v -0.03250003 0.23 0.0562917
v -0.03249991 -0.23 0.05629158
v -1.192093E-07 0.23 0.06500006
v 1.192093E-07 -0.23 0.06499994
v 0.03249991 0.23 0.0562917
v 0.03250003 -0.23 0.05629158
v 0.05629158 0.23 0.03250003
v 0.0562917 -0.23 0.03249991
vn 0.9659258 2.530585E-07 -0.2588191
vn 0.707106 2.766295E-07 -0.7071077
vn 0.2588195 3.346906E-07 -0.9659257
vn -0.258819 1.088388E-07 -0.9659258
vn -0.7071077 -8.65847E-08 -0.7071059
vn -0.9659257 -2.1914E-07 -0.2588196
vn -0.9659258 -2.536837E-07 0.2588191
vn -0.707106 -2.747642E-07 0.7071077
vn -0.2588195 -3.384713E-07 0.9659257
vn 0.2588195 -1.53368E-07 0.9659257
vn 0.7071069 -4.928439E-09 0.7071067
vn 0.9659257 2.186669E-07 0.2588195
vn 6.88793E-08 -1 -5.957162E-09
vn 4.25121E-08 1 5.957234E-09
vt 0.1320966 0.099007
vt 0.1287808 0.09957834
vt 0.1209697 0.05424638
vt 0.1242855 0.05367504
vt -0.0616896 0.1060949
vt -0.06417917 0.1038315
vt -0.03323531 0.06979506
vt -0.03074573 0.07205845
vt -0.1381052 0.0002862233
vt -0.1397767 -0.002633868
vt -0.0998545 -0.02548596
vt -0.09818299 -0.02256588
vt -0.1698739 -0.07864995
vt -0.1713112 -0.08169219
vt -0.129719 -0.1013415
vt -0.1282818 -0.09829924
vt -0.1896141 -0.1042228
vt -0.1911688 -0.1072067
vt -0.150374 -0.1284619
vt -0.1488193 -0.1254779
vt -0.1993951 -0.0526405
vt -0.201541 -0.05523194
vt -0.1661118 -0.08457082
vt -0.1639658 -0.08197936
vt -0.1287808 0.09957834
vt -0.1320966 0.099007
vt -0.1242855 0.05367504
vt -0.1209697 0.05424638
vt 0.06417919 0.1038315
vt 0.06168961 0.1060949
vt 0.03074574 0.07205843
vt 0.03323532 0.06979506
vt 0.1397767 -0.002633851
vt 0.1381052 0.0002862303
vt 0.09818299 -0.02256586
vt 0.0998545 -0.02548595
vt 0.1713112 -0.08169224
vt 0.169874 -0.07865001
vt 0.1282818 -0.09829929
vt 0.1297191 -0.1013415
vt 0.1911688 -0.1072067
vt 0.1896141 -0.1042228
vt 0.1488192 -0.125478
vt 0.1503739 -0.1284619
vt 0.2015411 -0.05523192
vt 0.1993951 -0.05264046
vt 0.1639659 -0.08197935
vt 0.1661118 -0.08457079
vt 0.1017081 -0.1478198
vt 0.09835456 -0.1475469
vt 0.0953138 -0.1489872
vt 0.09340061 -0.151755
vt 0.09312762 -0.1551085
vt 0.09456798 -0.1581493
vt 0.09733576 -0.1600625
vt 0.1006893 -0.1603355
vt 0.1037301 -0.1588951
vt 0.1056433 -0.1561273
vt 0.1059162 -0.1527738
vt 0.1044759 -0.149733
vt -0.1044759 -0.1497331
vt -0.1059162 -0.1527738
vt -0.1056433 -0.1561274
vt -0.1037301 -0.1588951
vt -0.1006893 -0.1603355
vt -0.09733574 -0.1600625
vt -0.09456798 -0.1581493
vt -0.09312762 -0.1551086
vt -0.09340061 -0.151755
vt -0.09531381 -0.1489872
vt -0.09835456 -0.1475469
vt -0.1017081 -0.1478199
o group21239339
g mesh21239339
usemtl mat15
f 4/4/1 3/3/1 2/2/1 1/1/1
f 3/8/2 6/7/2 5/6/2 2/5/2
f 6/12/3 8/11/3 7/10/3 5/9/3
f 8/16/4 10/15/4 9/14/4 7/13/4
f 10/20/5 12/19/5 11/18/5 9/17/5
f 12/24/6 14/23/6 13/22/6 11/21/6
f 14/28/7 16/27/7 15/26/7 13/25/7
f 16/32/8 18/31/8 17/30/8 15/29/8
f 18/36/9 20/35/9 19/34/9 17/33/9
f 20/40/10 22/39/10 21/38/10 19/37/10
f 22/44/11 24/43/11 23/42/11 21/41/11
f 24/48/12 4/47/12 1/46/12 23/45/12
f 24/60/13 22/59/13 20/58/13 18/57/13 16/56/13 14/55/13 12/54/13 10/53/13 8/52/13 6/51/13 3/50/13 4/49/13
f 1/72/14 2/71/14 5/70/14 7/69/14 9/68/14 11/67/14 13/66/14 15/65/14 17/64/14 19/63/14 21/62/14 23/61/14
