mtllib materials.mtl
v 0.1034483 -0.0724138 -0.02896547
v 0.1034482 -0.0724138 0.02896553
v 0.1034482 -0.08482766 0.02896553
v 0.1034483 -0.08482766 -0.02896547
v -0.1034483 -0.07241368 -0.02896559
v -0.1034482 0.0724138 -0.02896553
v -0.1179309 0.0724138 -0.02896553
v -0.117931 -0.07241368 -0.02896559
v -0.1034483 -0.08482754 -0.02896559
v 0.1034483 -0.08482754 -0.02896547
v 0.1034483 0.0724138 -0.02896541
v 0.1034483 0.07241368 0.02896559
v 0.1137931 0.07241368 0.02896559
v 0.1137931 0.0724138 -0.02896541
v 0.1034483 0.0724138 1.192093E-07
v 0.1034482 -0.0724138 0
v -0.1034483 -0.0724138 0.02896541
v -0.1034484 -0.0724138 0.1089654
v 0.1034482 -0.0724138 0.1089655
v -0.1034483 0.0724138 0.02896547
v -0.1034483 0.0724138 0.1089655
v 0.1034482 0.07241368 0.1089656
v -0.1179309 0.0724138 -0.02896553
v -0.117931 0.0724138 0.02896547
v 0.1034483 0.08896554 -0.02896541
v -0.1034482 0.08896554 -0.02896553
v 0.1034483 0.08896542 0.02896559
v -0.1034483 0.08896554 0.02896547
v -0.117931 0.0724138 0.02896547
v -0.1034482 -0.0724138 0.1089654
v -0.1034482 0.0724138 0.1089655
v -0.1034483 -0.08482754 -0.02896559
v -0.1034483 -0.08482754 0.02896541
v -0.1179311 -0.0724138 0.02896541
v -0.1179309 0.08896554 -0.02896553
v -0.117931 0.08896554 0.02896547
v -0.103448 0.0724138 0.1089655
v -0.103448 0.08896554 0.1089655
v 0.1034486 0.07241368 0.1089656
v 0.1034486 -0.0724138 0.1089655
v 0.1137931 0.0724138 -0.02896541
v 0.1137931 0.07241368 0.02896559
v 0.1137931 -0.0724138 -0.02896547
v 0.1137931 -0.0724138 0.02896553
v 0.113793 -0.08482766 0.02896553
v 0.1137931 -0.08482766 -0.02896547
v 0.1034487 0.08896542 0.1089655
v 0.1034486 0.07241368 0.1089655
v 0.1137932 0.08896554 -0.02896541
v 0.1137931 0.08896542 0.02896559
v 0.122069 0.07241368 0.02896559
v 0.122069 0.0724138 -0.02896541
v 0.1137936 0.07241368 0.1089655
v 0.1137935 -0.0724138 0.1089655
v 0.122069 0.0724138 -0.02896541
v 0.122069 0.07241368 0.02896559
v 0.1220689 -0.0724138 -0.02896547
v 0.1220689 -0.0724138 0.02896553
v 0.1137936 0.08896542 0.1089655
v 0.1137936 0.07241368 0.1089655
v 0.122069 0.08896554 -0.02896541
v 0.122069 0.08896542 0.02896559
v 0.1220683 -0.0724138 0.1089656
v 0.1137925 -0.0724138 0.1089656
v 0.1220689 -0.08482766 -0.02896547
v 0.1220689 -0.08482766 0.02896553
v 0.1137926 -0.0724138 0.1089656
v 0.1034477 -0.0724138 0.1089656
v 0.1137931 -0.08482766 -0.02896547
v 0.113793 -0.08482766 0.02896553
v -0.1034483 -0.08482754 0.02896541
v 0.1034482 -0.0724138 0.1089655
v -0.1034484 -0.0724138 0.1089654
v 0.1034482 -0.08482766 0.02896553
v -0.1179311 -0.08482754 -0.02896559
v -0.1179311 -0.08482754 0.02896541
v -0.1034487 -0.0724138 0.1089655
v -0.1179314 -0.0724138 0.1089655
v -0.1034483 0.0724138 0
v -0.1034483 -0.0724138 -1.192093E-07
v -0.1034483 0.0724138 0.1089655
v 0.1034482 0.07241368 0.1089656
v -0.1179309 -0.0724138 0.1089654
v -0.1179309 0.0724138 0.1089655
v -0.1179307 0.0724138 0.1089655
v -0.1179307 0.08896554 0.1089655
v -0.1034483 0.08896554 0.1089655
v 0.1034483 0.08896542 0.1089656
v 0.1137935 0.08896542 0.1089655
v 0.1137935 0.07241368 0.1089655
v 0.1137935 0.07241368 0.1089656
v 0.1137934 -0.0724138 0.1089655
v 0.1220694 0.07241368 0.1089655
v 0.1220693 -0.0724138 0.1089655
v 0.1220694 0.08896542 0.1089655
v 0.1220694 0.07241368 0.1089655
v 0.1034482 -0.08482766 0.1089655
v -0.1034484 -0.08482754 0.1089654
v 0.1137926 -0.08482766 0.1089656
v 0.1034477 -0.08482766 0.1089656
v 0.1220683 -0.08482766 0.1089656
v 0.1137924 -0.08482766 0.1089656
v -0.1034487 -0.08482754 0.1089655
v -0.1179314 -0.08482754 0.1089655
vn -1 2.00127E-07 -5.284269E-07
vn 3.442888E-07 5.094207E-07 -1
vn 5.262069E-07 2.093275E-07 -1
vn -4.245188E-07 -1 -4.973959E-07
vn -1 4.148548E-07 -5.284268E-07
vn -2.264579E-07 -1 1.066841E-07
vn -5.145467E-07 -1 -4.735998E-07
vn -4.245188E-07 -1 -4.867093E-07
vn 5.299007E-07 7.344902E-07 -1
vn 4.245188E-07 1 5.590027E-07
vn 4.245188E-07 1 5.321324E-07
vn 1 -4.038957E-07 -1.427352E-06
vn 1 -6.489115E-07 5.284267E-07
vn -1 4.007854E-07 -5.284268E-07
vn 4.208671E-07 6.219555E-07 -1
vn 4.245188E-07 1 5.319101E-07
vn 1 -8.496677E-08 -3.615961E-06
vn -1 6.32189E-07 -5.284267E-07
vn -1 4.561153E-07 4.221319E-06
vn 4.245188E-07 1 5.214459E-07
vn 7.862201E-07 5.094205E-07 -1
vn -1 4.291942E-07 -5.284268E-07
vn -1 2.301728E-06 4.547288E-06
vn 4.245188E-07 1 5.002712E-07
vn 6.790107E-07 6.219554E-07 -1
vn -4.245188E-07 -1 -5.39429E-07
vn -1 4.513929E-07 5.432044E-06
vn 4.245188E-07 1 4.794127E-07
vn 4.621552E-07 5.094207E-07 -1
vn 1 -4.126673E-07 5.284268E-07
vn -1 3.366394E-07 5.758007E-06
vn 4.245188E-07 1 4.611184E-07
vn 5.041884E-07 5.094207E-07 -1
vn 1 -3.208161E-07 5.284268E-07
vn 4.245192E-07 1 -6.946873E-07
vn 1 -5.627897E-07 5.284267E-07
vn 4.627692E-07 5.094207E-07 -1
vn -4.245188E-07 -1 -5.5855E-07
vn 6.440778E-08 1 -6.677833E-07
vn 1 -4.291942E-07 5.284268E-07
vn 7.025334E-07 3.593743E-07 -1
vn -4.245188E-07 -1 -4.891535E-07
vn -1 6.489115E-07 -5.284267E-07
vn 2.264579E-07 1 -8.611726E-08
vn 1 -2.001267E-07 5.284269E-07
vn -4.245189E-07 -1 -4.334441E-07
vn 3.348321E-07 3.593742E-07 -1
vn -1 1.476256E-07 -5.284269E-07
vn 1.672961E-07 1 4.508888E-07
vn -4.245188E-07 -1 -4.507227E-07
vn -4.245188E-07 -1 -4.983706E-07
vn 1 -4.148548E-07 5.284268E-07
vn 4.245188E-07 1 5.204711E-07
vn 5.28427E-07 5.094207E-07 -1
vn -1 3.917011E-07 -8.078237E-07
vn 5.145467E-07 1 4.530331E-07
vn 1 -4.270694E-07 9.940882E-07
vn -6.146923E-07 -4.065316E-07 1
vn -1.67296E-07 -1 -4.467325E-07
vn -1 3.861389E-07 1.427351E-06
vn 1.67296E-07 1 2.275738E-07
vn 5.532769E-07 -4.065322E-07 1
vn -1.672962E-07 -1 -2.15105E-07
vn -1 3.933219E-07 3.61596E-06
vn 1.672962E-07 1 2.14704E-07
vn 1.610856E-07 -5.928181E-08 1
vn -1 3.798929E-07 -8.543899E-07
vn 5.145467E-07 1 3.662595E-07
vn 1 -2.434623E-06 6.681239E-07
vn -6.135948E-07 -5.928145E-08 1
vn 6.440706E-08 1 5.270505E-07
vn 1 -4.629185E-07 -4.640419E-06
vn -6.440802E-08 -1 -6.37939E-07
vn 1.886562E-07 -5.928324E-08 1
vn 6.440756E-08 1 6.587987E-07
vn 1 -4.47644E-07 -4.314452E-06
vn -6.440762E-08 -1 6.435321E-07
vn -8.321525E-07 -4.065314E-07 1
vn 4.245189E-07 1 5.45049E-07
vn 1 -4.240797E-07 -5.152647E-06
vn -4.245189E-07 -1 6.983346E-07
vn 1.015108E-07 -4.065318E-07 1
vn 4.245188E-07 1 4.431569E-07
vn 1 -1.309331E-06 -5.664879E-06
vn -4.245188E-07 -1 -6.062854E-07
vn 3.96058E-07 -5.928271E-08 1
vn 1 -1.308947E-07 9.475221E-07
vn -5.145469E-07 -1 -9.227402E-08
vn -1 -3.208914E-08 -7.612576E-07
vn -5.903818E-07 -2.09328E-07 1
vn 1 -1.203975E-06 5.883527E-06
vn -6.440759E-08 -1 -2.315974E-07
vn -1 3.107056E-07 -6.162924E-06
vn 1.618266E-07 -2.093299E-07 1
vn 1 -2.978358E-07 7.46677E-06
vn -4.24519E-07 -1 -1.316234E-07
vn -1 1.414597E-06 -7.373638E-06
vn 2.875396E-07 9.076125E-08 1
vn 1 -4.12874E-07 4.486545E-06
vn -1.672961E-07 -1 4.365952E-08
vn -1 -3.504889E-07 -4.486546E-06
vn -2.111963E-08 9.076792E-08 1
vt -0.009568462 0.1355487
vt -0.0142825 0.1321816
vt -0.01356096 0.1311714
vt -0.008846922 0.1345386
vt -0.1342874 -0.009499526
vt -0.1472412 -0.003022639
vt -0.1478889 -0.004318014
vt -0.1349351 -0.0107949
vt -0.1250348 0.009005872
vt -0.1342875 -0.009499513
vt -0.1331771 -0.01005468
vt -0.1239244 0.008450712
vt -0.08296153 -0.02119388
vt -0.07750592 -0.02314232
vt -0.07715799 -0.0221681
vt -0.08261359 -0.02021967
vt -0.009568432 0.1355487
vt -0.01798637 0.1473338
vt -0.0203434 0.1456502
vt -0.01192545 0.1338651
vt -0.07750584 -0.02314234
vt -0.08446454 -0.04262666
vt -0.0769306 -0.04531735
vt -0.06997191 -0.02583304
vt -0.07750592 -0.02314233
vt -0.08446462 -0.04262664
vt -0.07693069 -0.04531734
vt -0.06997199 -0.02583303
vt -0.08446462 -0.04262663
vt -0.08992023 -0.04067819
vt -0.09040733 -0.04204209
vt -0.08495173 -0.04399053
vt -0.1472412 -0.003022661
vt -0.1379885 0.01548273
vt -0.1394689 0.01622294
vt -0.1487216 -0.002282446
vt 0.08296153 -0.02119387
vt 0.07750593 -0.02314231
vt 0.08446462 -0.04262662
vt 0.08992024 -0.04067818
vt 0.08992023 -0.04067818
vt 0.08446462 -0.04262662
vt 0.08495174 -0.04399052
vt 0.09040733 -0.04204208
vt 0.02269992 0.1439668
vt 0.01428201 0.1321817
vt 0.02079189 0.1275318
vt 0.0292098 0.1393169
vt 0.01428242 0.1321815
vt 0.009568388 0.1355487
vt 0.008846846 0.1345386
vt 0.01356089 0.1311714
vt -0.009568441 0.1355487
vt -0.01798638 0.1473338
vt -0.02270042 0.1439666
vt -0.01428247 0.1321815
vt -0.1472412 -0.003022651
vt -0.1487216 -0.002282435
vt -0.1493693 -0.00357781
vt -0.1478889 -0.004318026
vt 0.08992023 -0.04067818
vt 0.08446462 -0.04262663
vt 0.08495174 -0.04399052
vt 0.09040733 -0.04204208
vt 0.02366149 0.1453138
vt 0.02269945 0.1439669
vt 0.02920934 0.1393171
vt 0.03017138 0.140664
vt -0.02270037 0.1439666
vt -0.01798633 0.1473338
vt -0.01894839 0.1486807
vt -0.02366243 0.1453135
vt -0.01428145 0.1321818
vt -0.02269931 0.1439669
vt -0.0292092 0.1393171
vt -0.02079134 0.1275319
vt 0.07750593 -0.02314231
vt 0.08296153 -0.02119388
vt 0.08261359 -0.02021967
vt 0.07715799 -0.0221681
vt -0.1379885 0.01548273
vt -0.1250348 0.009005839
vt -0.1245721 0.009931106
vt -0.1375259 0.016408
vt -0.009568431 0.1355487
vt -0.01428247 0.1321815
vt -0.01356093 0.1311714
vt -0.00884689 0.1345386
vt -0.02269894 0.1439669
vt -0.02366097 0.1453138
vt -0.03017088 0.1406639
vt -0.02920884 0.1393171
vt 0.07750592 -0.02314232
vt 0.08296153 -0.02119388
vt 0.08261359 -0.02021967
vt 0.07715799 -0.0221681
vt -0.1394689 0.01622294
vt -0.1379885 0.01548273
vt -0.1375259 0.01640799
vt -0.1390063 0.01714821
vt -0.08261359 -0.02021966
vt -0.07715799 -0.0221681
vt -0.07687964 -0.02138873
vt -0.08233525 -0.01944029
vt -0.0142812 0.1321818
vt -0.02269904 0.143967
vt -0.02920893 0.1393171
vt -0.02079109 0.127532
vt 0.07715799 -0.0221681
vt 0.08261359 -0.02021967
vt 0.08233525 -0.0194403
vt 0.07687964 -0.02138873
vt -0.1375259 0.01640801
vt -0.1245721 0.00993112
vt -0.124202 0.01067134
vt -0.1371558 0.01714823
vt 0.009568431 0.1355487
vt 0.01428247 0.1321815
vt 0.0227004 0.1439666
vt 0.01798637 0.1473338
vt -0.02269898 0.143967
vt -0.02366102 0.1453139
vt -0.03017092 0.140664
vt -0.02920888 0.1393172
vt 0.07715799 -0.0221681
vt 0.08261359 -0.02021967
vt 0.08233524 -0.0194403
vt 0.07687964 -0.02138873
vt -0.1390063 0.01714823
vt -0.1375259 0.01640801
vt -0.1371558 0.01714823
vt -0.1386362 0.01788845
vt 0.01798639 0.1473338
vt 0.02270042 0.1439666
vt 0.02366247 0.1453135
vt 0.01894844 0.1486807
vt 0.07715784 -0.02216819
vt 0.07687949 -0.02138882
vt 0.06934557 -0.02407957
vt 0.06962392 -0.02485894
vt 0.01428245 0.1321816
vt 0.009568412 0.1355487
vt 0.008846871 0.1345386
vt 0.01356091 0.1311714
vt -0.124202 0.01067134
vt -0.1245721 0.00993112
vt -0.1234618 0.009375955
vt -0.1230917 0.01011617
vt -0.08261359 -0.02021966
vt -0.07715799 -0.0221681
vt -0.07687964 -0.02138872
vt -0.08233525 -0.01944029
vt 0.07750577 -0.02314237
vt 0.07715784 -0.02216815
vt 0.06962391 -0.02485889
vt 0.06997184 -0.02583311
vt 0.01428247 0.1321815
vt 0.009568431 0.1355487
vt 0.00884689 0.1345386
vt 0.01356093 0.1311714
vt -0.1245721 0.009931119
vt -0.1250348 0.009005852
vt -0.1239244 0.008450687
vt -0.1234618 0.009375954
vt -0.08296152 -0.02119388
vt -0.07750592 -0.02314232
vt -0.07715799 -0.0221681
vt -0.08261359 -0.02021967
vt -0.009568388 0.1355487
vt -0.01428242 0.1321815
vt -0.01356089 0.1311714
vt -0.008846846 0.1345386
vt 0.08446454 -0.04262666
vt 0.07750584 -0.02314234
vt 0.06997191 -0.02583304
vt 0.07693061 -0.04531735
vt 0.0142825 0.1321816
vt 0.009568462 0.1355487
vt 0.008846928 0.1345386
vt 0.01356096 0.1311714
vt -0.08296151 -0.02119389
vt -0.08992022 -0.0406782
vt -0.08446461 -0.04262663
vt -0.07750591 -0.02314232
vt -0.1342874 -0.009499516
vt -0.1349351 -0.01079489
vt -0.1338248 -0.01135006
vt -0.1331771 -0.01005469
vt -0.009568477 0.1355487
vt -0.01428251 0.1321816
vt -0.01356097 0.1311714
vt -0.008846936 0.1345386
vt 0.08495171 -0.04399051
vt 0.0844646 -0.04262661
vt 0.07693068 -0.04531734
vt 0.07741778 -0.04668124
vt -0.08446462 -0.04262663
vt -0.08992022 -0.0406782
vt -0.09040733 -0.0420421
vt -0.08495172 -0.04399053
vt -0.08296153 -0.02119388
vt -0.08992023 -0.04067819
vt -0.08719242 -0.04165241
vt -0.08023372 -0.0221681
vt 0.01798637 0.1473338
vt 0.009568432 0.1355487
vt 0.01192544 0.1338651
vt 0.02034339 0.1456502
vt 0.08992023 -0.04067819
vt 0.08296153 -0.02119388
vt 0.08023373 -0.0221681
vt 0.08719243 -0.04165241
vt -0.1250347 0.009005851
vt -0.1379885 0.01548274
vt -0.1472412 -0.00302265
vt -0.1342874 -0.009499541
vt -0.01428253 0.1321815
vt -0.02270048 0.1439666
vt -0.02921034 0.1393167
vt -0.02079239 0.1275316
vt 0.08446462 -0.04262664
vt 0.07750592 -0.02314233
vt 0.06997199 -0.02583303
vt 0.07693069 -0.04531734
vt 0.02270051 0.1439666
vt 0.01428257 0.1321815
vt 0.02079243 0.1275316
vt 0.02921037 0.1393167
vt 0.1250348 0.009005853
vt 0.1342874 -0.009499538
vt 0.1472412 -0.003022645
vt 0.1379885 0.01548274
vt -0.0844646 -0.04262661
vt -0.08495171 -0.04399051
vt -0.07741778 -0.04668119
vt -0.07693066 -0.04531729
vt -0.01428202 0.1321816
vt -0.02269993 0.1439668
vt -0.0292098 0.1393169
vt -0.02079189 0.1275318
vt 0.08495168 -0.04399052
vt 0.08446457 -0.04262662
vt 0.07693063 -0.0453173
vt 0.07741775 -0.0466812
vt 0.1472412 -0.003022593
vt 0.1342874 -0.009499484
vt 0.1349351 -0.01079486
vt 0.1478889 -0.004317968
vt -0.08446456 -0.04262662
vt -0.08495168 -0.04399052
vt -0.07741774 -0.04668119
vt -0.07693063 -0.04531728
vt -0.02269939 0.1439669
vt -0.02366143 0.1453138
vt -0.03017132 0.1406639
vt -0.02920928 0.1393171
vt 0.08495168 -0.04399052
vt 0.08446457 -0.04262663
vt 0.07693063 -0.04531728
vt 0.07741774 -0.04668119
vt 0.1487217 -0.002282353
vt 0.1472412 -0.003022569
vt 0.1478889 -0.004317944
vt 0.1493693 -0.003577728
vt -0.02270049 0.1439666
vt -0.02366254 0.1453135
vt -0.0301724 0.1406636
vt -0.02921035 0.1393167
vt 0.08446461 -0.04262665
vt 0.07750591 -0.02314234
vt 0.06997198 -0.02583303
vt 0.07693068 -0.04531734
vt 0.02366215 0.1453135
vt 0.0227001 0.1439666
vt 0.02920998 0.1393167
vt 0.03017203 0.1406636
vt 0.1379885 0.01548276
vt 0.1472412 -0.003022624
vt 0.1487217 -0.002282408
vt 0.139469 0.01622298
vt 0.07750591 -0.02314227
vt 0.07715797 -0.02216806
vt 0.06962404 -0.02485872
vt 0.06997196 -0.02583293
vt 0.02366126 0.1453138
vt 0.02269922 0.1439669
vt 0.02920911 0.1393171
vt 0.03017115 0.140664
vt -0.07715799 -0.02216805
vt -0.07750592 -0.02314227
vt -0.06997199 -0.02583293
vt -0.06962405 -0.02485871
vt 0.1379885 0.01548282
vt 0.1394689 0.01622305
vt 0.1390063 0.01714831
vt 0.1375259 0.0164081
vt 0.07750592 -0.02314227
vt 0.07715799 -0.02216805
vt 0.06962405 -0.02485871
vt 0.06997198 -0.02583293
vt 0.02269929 0.1439669
vt 0.01428143 0.1321818
vt 0.02079133 0.1275319
vt 0.02920919 0.1393171
vt -0.07715783 -0.02216815
vt -0.07750577 -0.02314237
vt -0.06997182 -0.02583302
vt -0.06962389 -0.02485881
vt 0.1250347 0.009005882
vt 0.1379885 0.01548277
vt 0.1375259 0.01640804
vt 0.1245721 0.009931152
vt 0.07715799 -0.0221681
vt 0.07687964 -0.02138872
vt 0.0693457 -0.02407938
vt 0.06962405 -0.02485875
vt 0.02269911 0.143967
vt 0.01428126 0.1321818
vt 0.02079116 0.1275319
vt 0.029209 0.1393171
vt -0.07687949 -0.02138882
vt -0.07715784 -0.02216819
vt -0.0696239 -0.02485884
vt -0.06934555 -0.02407947
vt 0.1245721 0.009931188
vt 0.1375259 0.01640807
vt 0.1371558 0.01714829
vt 0.124202 0.0106714
vt 0.07715798 -0.02216811
vt 0.07687964 -0.02138873
vt 0.06934569 -0.02407938
vt 0.06962404 -0.02485875
vt 0.02366089 0.1453139
vt 0.02269885 0.143967
vt 0.02920875 0.1393171
vt 0.03017079 0.140664
vt -0.07687965 -0.02138872
vt -0.077158 -0.02216809
vt -0.06962405 -0.02485874
vt -0.06934571 -0.02407937
vt 0.1375259 0.01640811
vt 0.1390063 0.01714833
vt 0.1386362 0.01788854
vt 0.1371558 0.01714833
vt 0.0142826 0.1321815
vt 0.01356106 0.1311714
vt 0.02007092 0.1265215
vt 0.02079246 0.1275316
vt -0.07750587 -0.02314236
vt -0.08446456 -0.04262667
vt -0.07693064 -0.04531736
vt -0.06997194 -0.02583305
vt -0.01356106 0.1311714
vt -0.0142826 0.1321815
vt -0.02079246 0.1275316
vt -0.02007092 0.1265215
vt 0.1342875 -0.009499524
vt 0.1250348 0.009005865
vt 0.1239244 0.0084507
vt 0.1331771 -0.01005468
vt 0.0142835 0.1321813
vt 0.01356195 0.1311711
vt 0.02007179 0.1265212
vt 0.02079334 0.1275313
vt -0.07715794 -0.02216809
vt -0.07750587 -0.02314231
vt -0.06997195 -0.02583304
vt -0.06962401 -0.02485883
vt -0.01356215 0.1311711
vt -0.01428369 0.1321813
vt -0.02079353 0.1275313
vt -0.02007198 0.1265212
vt 0.1250348 0.009005853
vt 0.1245721 0.009931126
vt 0.1234618 0.009375959
vt 0.1239244 0.008450689
vt 0.01428396 0.1321812
vt 0.01356241 0.1311711
vt 0.02007224 0.1265211
vt 0.02079379 0.1275313
vt -0.07687959 -0.02138876
vt -0.07715794 -0.02216813
vt -0.06962401 -0.02485888
vt -0.06934567 -0.02407951
vt -0.01356223 0.131171
vt -0.01428378 0.1321812
vt -0.02079361 0.1275312
vt -0.02007207 0.1265211
vt 0.1245722 0.00993114
vt 0.1242021 0.01067135
vt 0.1230917 0.01011619
vt 0.1234618 0.009375973
vt 0.01428338 0.1321813
vt 0.01356184 0.1311712
vt 0.02007168 0.1265212
vt 0.02079322 0.1275314
vt -0.08446454 -0.04262665
vt -0.08495165 -0.04399054
vt -0.07741772 -0.04668127
vt -0.07693061 -0.04531737
vt -0.01356197 0.1311712
vt -0.01428351 0.1321813
vt -0.02079335 0.1275314
vt -0.02007181 0.1265212
vt 0.1349352 -0.01079489
vt 0.1342875 -0.009499514
vt 0.1331772 -0.01005467
vt 0.1338249 -0.01135005
o group1765894126
g mesh1765894126
usemtl mat15
f 4/4/1 3/3/1 2/2/1 1/1/1
f 8/8/2 7/7/2 6/6/2 5/5/2
f 10/12/3 9/11/3 5/10/3 1/9/3
f 14/16/4 13/15/4 12/14/4 11/13/4
f 16/20/5 15/19/5 11/18/5 1/17/5
f 19/24/6 18/23/6 17/22/6 2/21/6
f 22/28/7 21/27/7 20/26/7 12/25/7
f 24/32/8 23/31/8 6/30/8 20/29/8
f 26/36/9 25/35/9 11/34/9 6/33/9
f 26/40/10 28/39/10 27/38/10 25/37/10
f 7/44/11 29/43/11 20/42/11 6/41/11
f 31/48/12 30/47/12 17/46/12 20/45/12
f 33/52/13 32/51/13 5/50/13 17/49/13
f 34/56/14 29/55/14 7/54/14 8/53/14
f 23/60/15 35/59/15 26/58/15 6/57/15
f 35/64/16 36/63/16 28/62/16 26/61/16
f 38/68/17 37/67/17 20/66/17 28/65/17
f 36/72/18 35/71/18 23/70/18 24/69/18
f 40/76/19 39/75/19 12/74/19 2/73/19
f 42/80/20 41/79/20 11/78/20 12/77/20
f 41/84/21 43/83/21 1/82/21 11/81/21
f 46/88/22 45/87/22 44/86/22 43/85/22
f 48/92/23 47/91/23 27/90/23 12/89/23
f 50/96/24 49/95/24 25/94/24 27/93/24
f 49/100/25 14/99/25 11/98/25 25/97/25
f 52/104/26 51/103/26 13/102/26 14/101/26
f 54/108/27 53/107/27 42/106/27 44/105/27
f 56/112/28 55/111/28 41/110/28 42/109/28
f 55/116/29 57/115/29 43/114/29 41/113/29
f 55/120/30 56/119/30 58/118/30 57/117/30
f 60/124/31 59/123/31 50/122/31 13/121/31
f 62/128/32 61/127/32 49/126/32 50/125/32
f 61/132/33 52/131/33 14/130/33 49/129/33
f 61/136/34 62/135/34 51/134/34 52/133/34
f 64/140/35 63/139/35 58/138/35 44/137/35
f 66/144/36 65/143/36 57/142/36 58/141/36
f 65/148/37 46/147/37 43/146/37 57/145/37
f 65/152/38 66/151/38 45/150/38 46/149/38
f 68/156/39 67/155/39 44/154/39 2/153/39
f 70/160/40 69/159/40 43/158/40 44/157/40
f 69/164/41 4/163/41 1/162/41 43/161/41
f 69/168/42 70/167/42 3/166/42 4/165/42
f 9/172/43 71/171/43 17/170/43 5/169/43
f 73/176/44 72/175/44 2/174/44 17/173/44
f 74/180/45 10/179/45 1/178/45 2/177/45
f 74/184/46 71/183/46 9/182/46 10/181/46
f 32/188/47 75/187/47 8/186/47 5/185/47
f 75/192/48 76/191/48 34/190/48 8/189/48
f 78/196/49 77/195/49 17/194/49 34/193/49
f 76/200/50 75/199/50 32/198/50 33/197/50
f 15/204/51 79/203/51 6/202/51 11/201/51
f 79/208/52 80/207/52 5/206/52 6/205/52
f 80/212/53 16/211/53 1/210/53 5/209/53
f 18/220/55 81/219/55 20/218/55 17/217/55
f 81/224/56 82/223/56 12/222/56 20/221/56
f 82/228/57 19/227/57 2/226/57 12/225/57
f 82/232/58 81/231/58 18/230/58 19/229/58
f 30/236/59 83/235/59 34/234/59 17/233/59
f 83/240/60 84/239/60 29/238/60 34/237/60
f 84/244/61 31/243/61 20/242/61 29/241/61
f 84/248/62 83/247/62 30/246/62 31/245/62
f 37/252/63 85/251/63 24/250/63 20/249/63
f 85/256/64 86/255/64 36/254/64 24/253/64
f 86/260/65 38/259/65 28/258/65 36/257/65
f 86/264/66 85/263/66 37/262/66 38/261/66
f 21/268/67 87/267/67 28/266/67 20/265/67
f 87/272/68 88/271/68 27/270/68 28/269/68
f 88/276/69 22/275/69 12/274/69 27/273/69
f 88/280/70 87/279/70 21/278/70 22/277/70
f 47/284/71 89/283/71 50/282/71 27/281/71
f 89/288/72 90/287/72 13/286/72 50/285/72
f 90/292/73 48/291/73 12/290/73 13/289/73
f 90/296/74 89/295/74 47/294/74 48/293/74
f 39/300/75 91/299/75 42/298/75 12/297/75
f 91/304/76 92/303/76 44/302/76 42/301/76
f 92/308/77 40/307/77 2/306/77 44/305/77
f 92/312/78 91/311/78 39/310/78 40/309/78
f 53/316/79 93/315/79 56/314/79 42/313/79
f 93/320/80 94/319/80 58/318/80 56/317/80
f 94/324/81 54/323/81 44/322/81 58/321/81
f 94/328/82 93/327/82 53/326/82 54/325/82
f 59/332/83 95/331/83 62/330/83 50/329/83
f 95/336/84 96/335/84 51/334/84 62/333/84
f 96/340/85 60/339/85 13/338/85 51/337/85
f 96/344/86 95/343/86 59/342/86 60/341/86
f 72/348/87 97/347/87 74/346/87 2/345/87
f 97/352/88 98/351/88 71/350/88 74/349/88
f 98/356/89 73/355/89 17/354/89 71/353/89
f 98/360/90 97/359/90 72/358/90 73/357/90
f 67/364/91 99/363/91 70/362/91 44/361/91
f 99/368/92 100/367/92 3/366/92 70/365/92
f 100/372/93 68/371/93 2/370/93 3/369/93
f 100/376/94 99/375/94 67/374/94 68/373/94
f 63/380/95 101/379/95 66/378/95 58/377/95
f 101/384/96 102/383/96 45/382/96 66/381/96
f 102/388/97 64/387/97 44/386/97 45/385/97
f 102/392/98 101/391/98 63/390/98 64/389/98
f 77/396/99 103/395/99 33/394/99 17/393/99
f 103/400/100 104/399/100 76/398/100 33/397/100
f 104/404/101 78/403/101 34/402/101 76/401/101
f 104/408/102 103/407/102 77/406/102 78/405/102
usemtl mat23
f 80/216/54 79/215/54 15/214/54 16/213/54
